<?xml version="1.0" encoding="UTF-8"?>
<svg xmlns="http://www.w3.org/2000/svg" xmlns:xlink="http://www.w3.org/1999/xlink" width="3001" height="3001" viewBox="0 0 3001 3001">
<path fill="white" d="M 1512.28125 759.378906 C 1532.859375 858.839844 1548.050781 941.96875 1560.820312 1011.871094 L 1560.890625 1012.308594 C 1594.191406 1194.601562 1610.878906 1285.800781 1663.039062 1337.960938 C 1715.238281 1390.160156 1806.539062 1406.839844 1989.089844 1440.179688 C 2059.191406 1452.980469 2142.550781 1468.21875 2241.71875 1488.738281 C 2247.941406 1490 2251.949219 1496.078125 2250.691406 1502.300781 C 2249.730469 1506.988281 2246.050781 1510.421875 2241.621094 1511.28125 C 2142.160156 1531.859375 2059.03125 1547.050781 1989.128906 1559.820312 L 1988.691406 1559.890625 C 1806.398438 1593.191406 1715.199219 1609.878906 1663.039062 1662.039062 C 1610.839844 1714.238281 1594.160156 1805.539062 1560.820312 1988.089844 C 1548.019531 2058.191406 1532.78125 2141.550781 1512.261719 2240.722656 C 1511 2246.941406 1504.921875 2250.953125 1498.699219 2249.691406 C 1494.011719 2248.734375 1490.578125 2245.050781 1489.71875 2240.625 C 1469.140625 2141.160156 1453.949219 2058.035156 1441.179688 1988.128906 L 1441.109375 1987.691406 C 1407.808594 1805.398438 1391.121094 1714.199219 1338.960938 1662.039062 C 1286.761719 1609.839844 1195.460938 1593.160156 1012.910156 1559.820312 C 942.808594 1547.019531 859.449219 1531.78125 760.277344 1511.261719 C 754.058594 1510 750.046875 1503.921875 751.308594 1497.699219 C 752.265625 1493.011719 755.949219 1489.578125 760.375 1488.71875 C 859.839844 1468.140625 942.964844 1452.949219 1012.871094 1440.179688 L 1013.308594 1440.109375 C 1195.601562 1406.808594 1286.800781 1390.121094 1338.960938 1337.960938 C 1391.160156 1285.761719 1407.839844 1194.460938 1441.179688 1011.910156 C 1453.980469 941.808594 1469.21875 858.449219 1489.738281 759.28125 C 1491 753.058594 1497.078125 749.050781 1503.300781 750.308594 C 1507.988281 751.269531 1511.421875 754.949219 1512.28125 759.378906 Z"/>
</svg>
